<?xml version="1.0" encoding="utf-8"?>
<svg width="220px" height="61px" viewBox="0 0 220 61" version="1.1" xmlns:xlink="http://www.w3.org/1999/xlink" xmlns="http://www.w3.org/2000/svg">
  <defs>
    <filter id="filter_1">
      <feColorMatrix in="SourceGraphic" type="matrix" values="0 0 0 0 1 0 0 0 0 1 0 0 0 0 1 0 0 0 1 0" />
    </filter>
    <path d="M0 61L220 61L220 0L0 0L0 61Z" id="path_1" />
    <clipPath id="mask_1">
      <use xlink:href="#path_1" />
    </clipPath>
  </defs>
  <g id="Group-19" filter="url(#filter_1)">
    <path d="M0 9.40416C4.4666 9.38225 7.25491 9.26013 9.78094 8.59479C12.6738 7.83239 15.3576 6.32637 19.9881 3.4114C23.5164 1.18838 26.8855 0.117571 30.125 0.00955126C33.3769 -0.1016 36.4666 0.760995 39.4329 2.40791L40.2228 2.84625C49.7368 8.1361 51.732 9.24448 62.3232 9.39007L62.3232 11.9137C51.2184 11.7712 49.1654 10.63 39.2299 5.10684L38.4384 4.66537C35.7937 3.19849 33.0507 2.42826 30.1874 2.52532C27.3132 2.62238 24.2908 3.593 21.0887 5.60937C16.2693 8.64646 13.4466 10.2182 10.2914 11.0511C7.53749 11.7759 4.63053 11.909 0 11.9293L0 9.40416Z" transform="translate(0.00078060135 18.318785)" id="Fill-1" fill="#000000" fill-rule="evenodd" stroke="none" />
    <path d="M0 6.26947L0 8.79464C3.8187 8.77898 6.53676 8.68975 9.17363 8.21227C12.218 7.66747 15.0547 6.61545 19.2153 4.59751C22.2596 3.24335 25.1978 2.59053 28.0361 2.52478C30.8681 2.46059 33.6221 2.98191 36.3151 3.97913C42.0042 6.091 46.0086 7.29331 50.2598 7.97431C53.7834 8.53633 57.4366 8.73358 62.3232 8.78524L62.3232 6.26008C57.5288 6.20842 53.9645 6.02056 50.5752 5.47733C46.4879 4.82294 42.588 3.65194 37.0192 1.58234C34.106 0.500577 31.1007 -0.0645712 27.9908 0.0058766C24.8887 0.0794555 21.6929 0.78863 18.3878 2.26177L18.3582 2.27586C14.3662 4.21396 11.6731 5.21589 8.82236 5.72937C6.36971 6.16771 3.73127 6.25382 0 6.26947" transform="translate(0.00078060135 13.865146)" id="Fill-3" fill="#000000" fill-rule="evenodd" stroke="none" />
    <path d="M0 3.12787C3.00063 3.12004 5.48138 3.07464 7.87002 2.85391C10.6958 2.59247 13.4248 2.0915 16.7845 1.12246L16.8344 1.10523C19.8897 0.385101 22.8966 0.0359932 25.8613 0.00311758C28.8198 -0.0328891 31.7205 0.244206 34.5791 0.771782C40.1526 1.81128 44.8924 2.40147 49.7415 2.7318C53.6679 2.9995 57.6974 3.09656 62.3232 3.12317L62.3232 5.64834C57.6942 5.62172 53.632 5.52153 49.6103 5.24757C44.6879 4.91255 39.8762 4.31296 34.2184 3.25937C31.4707 2.75215 28.6933 2.48445 25.8785 2.51576C23.0715 2.55176 20.2129 2.88365 17.2919 3.57561C13.7901 4.5791 10.9596 5.10198 8.04644 5.36968C5.56413 5.59824 3.04278 5.64521 0 5.6546L0 3.12787Z" transform="translate(0.00078060135 9.838132)" id="Fill-5" fill="#000000" fill-rule="evenodd" stroke="none" />
    <path d="M0 61L220 61L220 0L0 0L0 61Z" id="Clip-8" fill="none" fill-rule="evenodd" stroke="none" />
    <g clip-path="url(#mask_1)">
      <path d="M0 2.52516L62.3232 2.52516L62.3232 0L0 0L0 2.52516Z" transform="translate(0 5.803336)" id="Fill-7" fill="#000000" fill-rule="evenodd" stroke="none" />
      <path d="M0 6.26636L0 8.79152C3.73908 8.77273 6.42123 8.6788 9.02375 8.21072C12.0665 7.66279 14.9017 6.61546 19.0654 4.59439C22.1098 3.24179 25.0448 2.58741 27.8846 2.52166C30.7167 2.45591 33.4722 2.97722 36.1637 3.97445C41.8543 6.08789 45.8588 7.2902 50.1084 7.97119C53.6695 8.53947 57.3617 8.73516 62.3232 8.78526L62.3232 6.2554C57.4523 6.21156 53.849 6.02214 50.4237 5.47421C46.3365 4.82139 42.4382 3.64883 36.8678 1.57923C33.9546 0.499026 30.9508 -0.0645569 27.8409 0.00589094C24.7388 0.0747733 21.543 0.785514 18.238 2.25866L18.2067 2.27275C14.2163 4.21084 11.5201 5.21277 8.67248 5.72469C6.25262 6.16147 3.65009 6.2507 0 6.26636" transform="translate(0.00078060135 26.986277)" id="Fill-9" fill="#EA0005" fill-rule="evenodd" stroke="none" />
      <path d="M0 3.12786C2.9054 3.11846 5.32682 3.06837 7.66082 2.85233C10.485 2.59245 13.2125 2.08992 16.5753 1.12401L16.6237 1.10835C19.6774 0.383521 22.6858 0.0359785 25.649 0.00310285C28.6075 -0.0329038 31.5098 0.245757 34.3683 0.771767C39.9418 1.8097 44.6816 2.39989 49.5307 2.73022C53.5165 3.00262 57.6084 3.09811 62.3232 3.12316L62.3232 5.64832C57.6068 5.62171 53.4821 5.52465 49.3996 5.24599C44.4771 4.91097 39.6655 4.31294 34.0061 3.25779C31.2615 2.749 28.4826 2.48287 25.6677 2.51887C22.8607 2.54862 20.0006 2.8852 17.0811 3.57403L17.0811 3.57089C13.5778 4.57752 10.7489 5.10196 7.83724 5.3681C5.41113 5.59353 2.94755 5.64363 0 5.65302L0 3.12786Z" transform="translate(0.00078060135 35.23334)" id="Fill-10" fill="#000000" fill-rule="evenodd" stroke="none" />
      <path d="M0 2.52829L62.3232 2.52829L62.3232 0L0 0L0 2.52829Z" transform="translate(0 43.471012)" id="Fill-11" fill="#000000" fill-rule="evenodd" stroke="none" />
      <path d="M0 54.9117L0 5.75011C0 4.15486 0.498024 2.79287 1.49407 1.67509C2.49012 0.560452 3.70317 0 5.12387 0L10.0979 0L10.0979 22.5042L29.1539 0L41.8121 0L22.1878 22.1895L43.5232 54.9117L31.2881 54.9117L18.9233 35.4321C16.7377 32.2432 14.7237 30.9892 12.8799 31.6859C11.0221 32.3794 10.0979 33.6741 10.0979 35.5949L10.0979 54.9117L0 54.9117Z" transform="translate(166.12102 5.596689)" id="Fill-12" fill="#000000" fill-rule="evenodd" stroke="none" />
      <path d="M0 54.9117L0 5.75011C0 4.15486 0.499585 2.79287 1.49563 1.67509C2.49012 0.560452 3.70317 0 5.12231 0L35.5486 0L35.5486 9.4134L9.95267 9.4134L9.95267 21.2361L29.0087 21.2361L29.0087 24.901C29.0087 26.4946 28.5107 27.8566 27.5146 28.9744C26.517 30.0922 25.318 30.6495 23.8864 30.6495L9.95267 30.6495L9.95267 44.6937L35.5486 44.6937L35.5486 54.9117L0 54.9117Z" transform="translate(126.716576 5.596689)" id="Fill-13" fill="#000000" fill-rule="evenodd" stroke="none" />
      <path d="M10.0979 35.2818L10.0979 54.9117L0 54.9117L0 5.75011C0 4.15642 0.499585 2.79443 1.49251 1.67509C2.48856 0.560452 3.70161 0 5.12231 0L21.7616 0C26.9807 0 30.8634 1.4841 33.4238 4.46952C36.0825 7.45338 37.4049 11.865 37.4049 17.7215C37.4049 23.254 36.1325 27.6124 33.5705 30.8139C31.0086 33.7977 27.3086 35.2818 22.4766 35.2818L10.0979 35.2818ZM10.0979 25.3784L19.9178 25.3784C22.575 25.3784 24.4672 24.7381 25.6068 23.4576C26.834 22.2866 27.4538 20.2702 27.4538 17.3975C27.4538 14.9443 26.8824 12.9828 25.7427 11.4987C24.4203 10.2181 22.6577 9.57778 20.4861 9.57778L10.0979 9.57778L10.0979 25.3784Z" transform="translate(85.323006 5.59575)" id="Fill-14" fill="#000000" fill-rule="evenodd" stroke="none" />
      <path d="M0 10.3057L0 5.75011C0 4.15486 0.498024 2.79287 1.49251 1.67509C2.487 0.560452 3.70161 0 5.12231 0L10.0963 0L10.0963 13.706L0 10.3057Z" transform="translate(70.47222 5.5963764)" id="Fill-15" fill="#EA0005" fill-rule="evenodd" stroke="none" />
      <path d="M0 39.4978L0 0L10.0963 3.40028L10.0963 39.4978L0 39.4978Z" transform="translate(70.47222 21.010675)" id="Fill-16" fill="#000000" fill-rule="evenodd" stroke="none" />
      <path d="M7.22837 11.3781C7.22837 11.4439 7.20807 11.4924 7.17216 11.519C7.13313 11.5487 7.08786 11.5628 7.03634 11.5628L5.89822 11.5628C5.8467 11.5628 5.80143 11.5378 5.77021 11.4877C5.73586 11.4392 5.71869 11.3812 5.71869 11.3155L5.71869 5.57164C5.71869 5.48867 5.70776 5.44953 5.68434 5.44953C5.67809 5.44953 5.65936 5.47301 5.62814 5.52311L4.54778 7.88076C4.51031 7.94808 4.46036 7.99818 4.39479 8.03732C4.33234 8.07489 4.26364 8.09211 4.18558 8.09211L3.04903 8.09211C2.97565 8.09211 2.9054 8.07489 2.84139 8.03732C2.77738 7.99818 2.72742 7.94808 2.68995 7.88076L1.59711 5.52311C1.56745 5.47301 1.54871 5.44953 1.54091 5.44953C1.51749 5.44953 1.50656 5.48867 1.50656 5.57164L1.50656 11.3155C1.50656 11.3812 1.49095 11.4392 1.4566 11.4877C1.42226 11.5378 1.3801 11.5628 1.32702 11.5628L0.188906 11.5628C0.135825 11.5628 0.092111 11.5487 0.0546421 11.519C0.0171732 11.4924 0 11.4439 0 11.3781L0 2.87897C0 2.7412 0.0421525 2.62066 0.128019 2.52673C0.215446 2.43436 0.320047 2.38583 0.448065 2.38583L1.37074 2.38583C1.46129 2.38583 1.54559 2.41245 1.61897 2.46567C1.69547 2.51734 1.75011 2.59248 1.78914 2.68171L3.48773 6.46241C3.51895 6.51877 3.54081 6.56104 3.55642 6.59079C3.57203 6.62053 3.59077 6.63462 3.61262 6.63462C3.63448 6.63462 3.65321 6.62053 3.67039 6.59079C3.68288 6.56104 3.7063 6.51877 3.73596 6.46241L5.43767 2.68171C5.47514 2.59248 5.52978 2.51734 5.60628 2.46567C5.68122 2.41245 5.76396 2.38583 5.85451 2.38583L6.77718 2.38583C6.90364 2.38583 7.01136 2.43436 7.09879 2.52673C7.18465 2.62066 7.22837 2.7412 7.22837 2.87897L7.22837 11.3781ZM14.3147 11.2294C14.3147 11.3186 14.2991 11.3812 14.2647 11.4141C14.2319 11.4486 14.1726 11.472 14.0914 11.4877C13.9993 11.5049 13.9009 11.5221 13.7917 11.5441C13.6839 11.5644 13.5481 11.5848 13.3858 11.5988C13.2249 11.6161 13.0298 11.6302 12.8003 11.6442C12.5724 11.6552 12.2882 11.6615 11.951 11.6615C11.5826 11.6615 11.2407 11.6286 10.9269 11.5628C10.6099 11.4971 10.3367 11.3703 10.1025 11.1871C9.87148 11.0024 9.68726 10.7425 9.553 10.4138C9.41718 10.0834 9.35004 9.65762 9.35004 9.13004L9.35004 4.81863C9.35004 4.29262 9.41718 3.86367 9.553 3.53492C9.68726 3.20459 9.87148 2.94785 10.1025 2.76156C10.3367 2.57683 10.6099 2.45158 10.9269 2.38583C11.2407 2.31852 11.5826 2.28721 11.951 2.28721C12.2882 2.28721 12.5724 2.2919 12.8003 2.30599C13.0298 2.31539 13.2249 2.33104 13.3858 2.34826C13.5481 2.36392 13.6839 2.38427 13.7917 2.40462C13.9009 2.42497 13.9993 2.44219 14.0914 2.45941C14.1726 2.47507 14.2319 2.50012 14.2647 2.53456C14.2991 2.56743 14.3147 2.62692 14.3147 2.71772L14.3147 3.51143C14.3147 3.57562 14.2928 3.63198 14.2475 3.68207C14.2038 3.73217 14.1507 3.75565 14.0914 3.75565L11.7933 3.75565C11.4624 3.75565 11.2313 3.83236 11.1002 3.97952C10.969 4.12668 10.9034 4.40534 10.9034 4.81863L10.9034 6.15401L13.9556 6.15401C14.0149 6.15401 14.068 6.17749 14.1133 6.22759C14.1585 6.27612 14.182 6.33561 14.182 6.39979L14.182 7.289C14.182 7.35632 14.1585 7.41268 14.1133 7.46121C14.068 7.5113 14.0149 7.53479 13.9556 7.53479L10.9034 7.53479L10.9034 9.13004C10.9034 9.54177 10.969 9.82043 11.1002 9.97072C11.2313 10.1194 11.4624 10.1915 11.7933 10.1915L14.0914 10.1915C14.1507 10.1915 14.2038 10.2165 14.2475 10.2666C14.2928 10.3151 14.3147 10.3746 14.3147 10.4388L14.3147 11.2294ZM22.3486 11.4517C22.3486 11.5253 22.2924 11.5628 22.18 11.5628L20.6719 11.5628C20.5517 11.5628 20.4658 11.5174 20.4112 11.4266L17.8321 7.21542L17.8321 11.3155C17.8321 11.3812 17.8118 11.4392 17.7665 11.4877C17.7212 11.5378 17.6681 11.5628 17.6088 11.5628L16.4925 11.5628C16.4348 11.5628 16.3817 11.5378 16.3364 11.4877C16.2911 11.4392 16.2693 11.3812 16.2693 11.3155L16.2693 2.63318C16.2693 2.56743 16.2911 2.50951 16.3364 2.46567C16.3817 2.41871 16.4348 2.39836 16.4925 2.39836L17.6088 2.39836C17.6681 2.39836 17.7212 2.41871 17.7665 2.46567C17.8118 2.50951 17.8321 2.56743 17.8321 2.63318L17.8321 6.55948L20.5907 2.49542C20.6219 2.45472 20.6578 2.42654 20.7 2.41558C20.7421 2.40462 20.7921 2.39836 20.8514 2.39836L22.1347 2.39836C22.2784 2.39836 22.3486 2.44689 22.3486 2.54552C22.3486 2.60344 22.3221 2.66919 22.2706 2.74433L19.3886 6.83187L22.2924 11.3045C22.3314 11.3703 22.3486 11.4188 22.3486 11.4517L22.3486 11.4517ZM25.5069 11.3155C25.5069 11.3812 25.4835 11.4392 25.4398 11.4877C25.393 11.5378 25.343 11.5628 25.2821 11.5628L24.1674 11.5628C24.1065 11.5628 24.0534 11.5378 24.0113 11.4877C23.9629 11.4392 23.9426 11.3812 23.9426 11.3155L23.9426 2.61909C23.9426 2.55178 23.9629 2.50012 24.0113 2.45315C24.0534 2.40619 24.1065 2.38583 24.1674 2.38583L25.2821 2.38583C25.343 2.38583 25.393 2.40619 25.4398 2.45315C25.4835 2.50012 25.5069 2.55178 25.5069 2.61909L25.5069 11.3155ZM25.4523 1.40896C25.4523 1.47471 25.4289 1.53263 25.3852 1.58116C25.3383 1.63126 25.2852 1.65631 25.2259 1.65631L24.2111 1.65631C24.1518 1.65631 24.1003 1.63126 24.0534 1.58116C24.0113 1.53263 23.9879 1.47471 23.9879 1.40896L23.9879 0.236392C23.9879 0.17064 24.0113 0.114282 24.0534 0.0673168C24.1003 0.0250481 24.1518 0 24.2111 0L25.2259 0C25.2852 0 25.3383 0.0250481 25.3852 0.0673168C25.4289 0.114282 25.4523 0.17064 25.4523 0.236392L25.4523 1.40896ZM33.7095 11.4517C33.7095 11.5253 33.6533 11.5628 33.5409 11.5628L32.0328 11.5628C31.911 11.5628 31.8251 11.5174 31.772 11.4266L29.1945 7.21542L29.1945 11.3155C29.1945 11.3812 29.1726 11.4392 29.1258 11.4877C29.0821 11.5378 29.029 11.5628 28.9697 11.5628L27.8534 11.5628C27.7957 11.5628 27.7426 11.5378 27.6957 11.4877C27.652 11.4392 27.6286 11.3812 27.6286 11.3155L27.6286 2.63318C27.6286 2.56743 27.652 2.50951 27.6957 2.46567C27.7426 2.41871 27.7957 2.39836 27.8534 2.39836L28.9697 2.39836C29.029 2.39836 29.0821 2.41871 29.1258 2.46567C29.1726 2.50951 29.1945 2.56743 29.1945 2.63318L29.1945 6.55948L31.9516 2.49542C31.9844 2.45472 32.0187 2.42654 32.0609 2.41558C32.1015 2.40462 32.153 2.39836 32.2107 2.39836L33.4956 2.39836C33.6392 2.39836 33.7095 2.44689 33.7095 2.54552C33.7095 2.60344 33.6829 2.66919 33.6314 2.74433L30.7479 6.83187L33.6533 11.3045C33.6923 11.3703 33.7095 11.4188 33.7095 11.4517L33.7095 11.4517ZM44.4459 11.3155C44.4459 11.3812 44.424 11.4392 44.3787 11.4877C44.3335 11.5378 44.2804 11.5628 44.2211 11.5628L43.1064 11.5628C43.0455 11.5628 42.9924 11.5378 42.9471 11.4877C42.9034 11.4392 42.8816 11.3812 42.8816 11.3155L42.8816 7.53479L39.6827 7.53479L39.6827 11.3155C39.6827 11.3812 39.6608 11.4392 39.6155 11.4877C39.5702 11.5378 39.5172 11.5628 39.4594 11.5628L38.3431 11.5628C38.2823 11.5628 38.2307 11.5378 38.1855 11.4877C38.1386 11.4392 38.1168 11.3812 38.1168 11.3155L38.1168 2.61909C38.1168 2.55178 38.1386 2.50012 38.1855 2.45315C38.2307 2.40619 38.2823 2.38583 38.3431 2.38583L39.4594 2.38583C39.5172 2.38583 39.5702 2.40619 39.6155 2.45315C39.6608 2.50012 39.6827 2.55178 39.6827 2.61909L39.6827 6.02877L42.8816 6.02877L42.8816 2.61909C42.8816 2.55178 42.9034 2.50012 42.9471 2.45315C42.9924 2.40619 43.0455 2.38583 43.1064 2.38583L44.2211 2.38583C44.2804 2.38583 44.3335 2.40619 44.3787 2.45315C44.424 2.50012 44.4459 2.55178 44.4459 2.61909L44.4459 11.3155ZM52.7843 11.3531C52.7843 11.4188 52.7655 11.4705 52.7281 11.508C52.689 11.5441 52.6422 11.5628 52.5829 11.5628L51.3885 11.5628C51.3339 11.5628 51.2902 11.5425 51.2527 11.5018C51.2153 11.4595 51.1887 11.411 51.1747 11.3531L50.6563 9.00636L48.0663 9.00636L47.548 11.3531C47.5324 11.411 47.5058 11.4595 47.4699 11.5018C47.4325 11.5425 47.3856 11.5628 47.3341 11.5628L46.1413 11.5628C46.0805 11.5628 46.0305 11.5441 45.9946 11.508C45.9556 11.4705 45.9368 11.4188 45.9368 11.3531C45.9368 11.3452 45.94 11.3374 45.9431 11.3296C45.9478 11.3186 45.9478 11.3077 45.9478 11.292L47.7947 3.54744C47.8634 3.25782 47.9601 3.03239 48.0882 2.86644C48.2146 2.70363 48.3536 2.57683 48.4988 2.49072C48.6455 2.40462 48.797 2.34826 48.95 2.32321C49.1045 2.29816 49.2403 2.28721 49.3605 2.28721C49.4808 2.28721 49.6181 2.29816 49.7727 2.32321C49.9257 2.34826 50.0756 2.40462 50.2223 2.49072C50.3691 2.57683 50.5049 2.70363 50.6329 2.86644C50.7609 3.03239 50.8577 3.25782 50.9264 3.54744L52.7733 11.292C52.7733 11.3077 52.7749 11.3186 52.7796 11.3296C52.7811 11.3374 52.7843 11.3452 52.7843 11.3531L52.7843 11.3531ZM49.5416 3.92942C49.526 3.85428 49.5073 3.80418 49.4839 3.77444C49.462 3.74626 49.4214 3.73217 49.3605 3.73217C49.3012 3.73217 49.2591 3.74626 49.2372 3.77444C49.2138 3.80418 49.1951 3.85428 49.181 3.92942L48.3692 7.59897L50.3519 7.59897L49.5416 3.92942ZM58.7933 11.2294C58.7933 11.3186 58.7746 11.3812 58.7418 11.4141C58.7075 11.4486 58.6497 11.472 58.5654 11.4877C58.4827 11.5127 58.3656 11.5362 58.2126 11.5566C58.0564 11.5754 57.8894 11.5957 57.7099 11.6114C57.5303 11.6286 57.3461 11.6427 57.1588 11.6489C56.9714 11.6583 56.8012 11.6615 56.6529 11.6615C56.2845 11.6615 55.9426 11.6286 55.6272 11.5628C55.3134 11.4971 55.0371 11.3703 54.806 11.1871C54.5718 11.0024 54.3892 10.7425 54.2534 10.4138C54.1191 10.0834 54.0504 9.65762 54.0504 9.13004L54.0504 2.63318C54.0504 2.56743 54.0738 2.50951 54.1191 2.45941C54.1644 2.40932 54.2174 2.38583 54.2752 2.38583L55.3899 2.38583C55.4508 2.38583 55.5039 2.40932 55.5492 2.45941C55.5929 2.50951 55.6163 2.56743 55.6163 2.63318L55.6163 9.13004C55.6163 9.54177 55.6787 9.82043 55.8068 9.97072C55.9363 10.1194 56.1627 10.1915 56.4937 10.1915L58.5654 10.1915C58.6263 10.1915 58.6794 10.2165 58.7231 10.2666C58.7699 10.3151 58.7933 10.3746 58.7933 10.4388L58.7933 11.2294ZM61.8595 11.3155C61.8595 11.3812 61.8377 11.4392 61.7924 11.4877C61.7456 11.5378 61.694 11.5628 61.6347 11.5628L60.5185 11.5628C60.4591 11.5628 60.4061 11.5378 60.3608 11.4877C60.3171 11.4392 60.2936 11.3812 60.2936 11.3155L60.2936 2.61909C60.2936 2.55178 60.3171 2.50012 60.3608 2.45315C60.4061 2.40619 60.4591 2.38583 60.5185 2.38583L61.6347 2.38583C61.694 2.38583 61.7456 2.40619 61.7924 2.45315C61.8377 2.50012 61.8595 2.55178 61.8595 2.61909L61.8595 11.3155Z" transform="translate(0.8246273 49.338223)" id="Fill-17" fill="#000000" fill-rule="evenodd" stroke="none" />
      <path d="M5.82329 3.88246C5.82329 4.71531 5.36898 5.13173 4.47597 5.13173L4.04976 5.13173L4.04976 2.88053C4.25584 2.81791 4.43538 2.78817 4.60086 2.78817C5.41113 2.78817 5.82329 3.15763 5.82329 3.88246L5.82329 3.88246ZM5.05517 5.65618C6.00126 5.54816 6.63199 4.91726 6.63199 3.88246C6.63199 2.78817 5.82329 2.0649 4.66956 2.0649C4.1325 2.0649 3.66726 2.17292 3.26916 2.3874L3.26916 8.5555L4.04976 8.5555L4.04976 5.71723L4.21525 5.71723L5.96067 8.5555L6.90676 8.5555L5.05517 5.65618ZM8.99721 5.47145C8.99721 6.75047 8.59754 7.84632 7.78728 8.75588C6.97545 9.66544 6.00126 10.1116 4.86159 10.1116C3.70786 10.1116 2.73367 9.66544 1.92184 8.75588C1.11158 7.84632 0.711908 6.75047 0.711908 5.47145C0.711908 4.17521 1.11158 3.06526 1.92184 2.15727C2.73367 1.24771 3.70786 0.784319 4.86159 0.784319C6.00126 0.784319 6.97545 1.24771 7.78728 2.15727C8.59754 3.06526 8.99721 4.17521 8.99721 5.47145L8.99721 5.47145ZM9.72317 5.47145C9.72317 3.95917 9.24232 2.66449 8.29623 1.60308C7.34702 0.536969 6.19485 0 4.86159 0C3.51583 0 2.3621 0.536969 1.41289 1.60308C0.4668 2.66449 0 3.95917 0 5.47145C0 6.98216 0.4668 8.26275 1.41289 9.32573C2.3621 10.3903 3.51583 10.9132 4.86159 10.9132C6.20734 10.9132 7.34702 10.3903 8.29623 9.32573C9.24232 8.26275 9.72317 6.98216 9.72317 5.47145L9.72317 5.47145Z" transform="translate(210.27745 0.00015655076)" id="Fill-18" fill="#000000" fill-rule="evenodd" stroke="none" />
    </g>
  </g>
</svg>